# xmcd
#
# Track frame offsets:
#	150
#	12355
#	24547
#	36475
#	48677
#	61237
#	75137
#	88962
#	98120
#	110142
#	124050
#	134317
#	144922
#	155730
#	166500
#
# Disc length: 2348 seconds
#
# Revision: 1
# Processed by: cddbd v1.5.2PL0 Copyright (c) Steve Scherf et al.
# Submitted via: audiograbber 1.83.01
#
DISCID=c3092a0f
DTITLE=Walker, Billy - Greatest hits on monument
DYEAR=1900
DGENRE=Country
TTITLE0=A million and one
TTITLE1=Ramona
TTITLE2=Bear with me a little longer
TTITLE3=From the bottle to the bottom
TTITLE4=Sundown Mary
TTITLE5=Anything your heart desires
TTITLE6=Curtains on the windows
TTITLE7=I taught her everthing she knows
TTITLE8=In Del Rio
TTITLE9=Darling days
TTITLE10=Smokey places
TTITLE11=The old french quarter
TTITLE12=Thinking 'bout you, babe
TTITLE13=Better homes and gardens
TTITLE14=Age of worry
EXTD=
EXTT0=
EXTT1=
EXTT2=
EXTT3=
EXTT4=
EXTT5=
EXTT6=
EXTT7=
EXTT8=
EXTT9=
EXTT10=
EXTT11=
EXTT12=
EXTT13=
EXTT14=
PLAYORDER=
